<?xml version="1.0" encoding="iso-8859-1"?>
<!-- Generator: Adobe Illustrator 19.0.0, SVG Export Plug-In . SVG Version: 6.00 Build 0)  -->
<svg version="1.1" id="Capa_1" xmlns="http://www.w3.org/2000/svg" xmlns:xlink="http://www.w3.org/1999/xlink" x="0px" y="0px"
	 viewBox="0 0 512 512" style="enable-background:new 0 0 512 512;" xml:space="preserve">
<path style="fill:#FFD561;" d="M436,112H76c-8.284,0-15-6.716-15-15V15c0-8.284,6.716-15,15-15h360c8.284,0,15,6.716,15,15v82
	C451,105.284,444.284,112,436,112z"/>
<path style="fill:#FFB23D;" d="M436,0H256v112h180c8.284,0,15-6.716,15-15V15C451,6.716,444.284,0,436,0z"/>
<path style="fill:#FFD561;" d="M456,512H56c-8.284,0-15-6.716-15-15V97c0-8.284,6.716-15,15-15h400c8.284,0,15,6.716,15,15v400
	C471,505.284,464.284,512,456,512z"/>
<path style="fill:#FFB23D;" d="M456,82H256v430h200c8.284,0,15-6.716,15-15V97C471,88.716,464.284,82,456,82z"/>
<path style="fill:#61CEF3;" d="M421,302h-90V197c0-8.284,6.716-15,15-15h60c8.284,0,15,6.716,15,15V302z"/>
<path style="fill:#FFB23D;" d="M477,30H35c-8.284,0-15-6.716-15-15S26.716,0,35,0h442c8.284,0,15,6.716,15,15S485.284,30,477,30z"/>
<path style="fill:#91E0FF;" d="M301,512h-90V397c0-8.284,6.716-15,15-15h60c8.284,0,15,6.716,15,15V512z"/>
<path style="fill:#F9EAB6;" d="M276,362h-40c-8.284,0-15-6.716-15-15s6.716-15,15-15h40c8.284,0,15,6.716,15,15S284.284,362,276,362
	z"/>
<path style="fill:#91E0FF;" d="M181,512H91V397c0-8.284,6.716-15,15-15h60c8.284,0,15,6.716,15,15V512z"/>
<g>
	<path style="fill:#F9EAB6;" d="M156,362h-40c-8.284,0-15-6.716-15-15s6.716-15,15-15h40c8.284,0,15,6.716,15,15
		S164.284,362,156,362z"/>
	<path style="fill:#F9EAB6;" d="M276,162h-40c-8.284,0-15-6.716-15-15s6.716-15,15-15h40c8.284,0,15,6.716,15,15
		S284.284,162,276,162z"/>
	<path style="fill:#F9EAB6;" d="M156,162h-40c-8.284,0-15-6.716-15-15s6.716-15,15-15h40c8.284,0,15,6.716,15,15
		S164.284,162,156,162z"/>
</g>
<g>
	<path style="fill:#91E0FF;" d="M301,302h-90V197c0-8.284,6.716-15,15-15h60c8.284,0,15,6.716,15,15V302z"/>
	<path style="fill:#91E0FF;" d="M181,302H91V197c0-8.284,6.716-15,15-15h60c8.284,0,15,6.716,15,15V302z"/>
</g>
<g>
	<path style="fill:#FFB23D;" d="M497,112H15c-8.284,0-15-6.716-15-15s6.716-15,15-15h482c8.284,0,15,6.716,15,15
		S505.284,112,497,112z"/>
	<path style="fill:#FFB23D;" d="M497,312H15c-8.284,0-15-6.716-15-15s6.716-15,15-15h482c8.284,0,15,6.716,15,15
		S505.284,312,497,312z"/>
</g>
<path style="fill:#FFA208;" d="M477,0H256v30h221c8.284,0,15-6.716,15-15S485.284,0,477,0z"/>
<path style="fill:#61CEF3;" d="M301,397c0-8.284-6.716-15-15-15h-30v130h45V397z"/>
<path style="fill:#F8E49E;" d="M276,332h-20v30h20c8.284,0,15-6.716,15-15S284.284,332,276,332z"/>
<path style="fill:#61CEF3;" d="M421,512h-90V397c0-8.284,6.716-15,15-15h60c8.284,0,15,6.716,15,15V512z"/>
<g>
	<path style="fill:#F8E49E;" d="M396,362h-40c-8.284,0-15-6.716-15-15s6.716-15,15-15h40c8.284,0,15,6.716,15,15
		S404.284,362,396,362z"/>
	<path style="fill:#F8E49E;" d="M276,132h-20v30h20c8.284,0,15-6.716,15-15S284.284,132,276,132z"/>
</g>
<path style="fill:#61CEF3;" d="M301,197c0-8.284-6.716-15-15-15h-30v120h45V197z"/>
<path style="fill:#F8E49E;" d="M396,162h-40c-8.284,0-15-6.716-15-15s6.716-15,15-15h40c8.284,0,15,6.716,15,15S404.284,162,396,162
	z"/>
<g>
	<path style="fill:#FFA208;" d="M497,82H256v30h241c8.284,0,15-6.716,15-15S505.284,82,497,82z"/>
	<path style="fill:#FFA208;" d="M497,282H256v30h241c8.284,0,15-6.716,15-15S505.284,282,497,282z"/>
</g>
<g>
</g>
<g>
</g>
<g>
</g>
<g>
</g>
<g>
</g>
<g>
</g>
<g>
</g>
<g>
</g>
<g>
</g>
<g>
</g>
<g>
</g>
<g>
</g>
<g>
</g>
<g>
</g>
<g>
</g>
</svg>
