<?xml version="1.0" encoding="iso-8859-1"?>
<!-- Generator: Adobe Illustrator 19.0.0, SVG Export Plug-In . SVG Version: 6.00 Build 0)  -->
<svg version="1.1" id="Layer_1" xmlns="http://www.w3.org/2000/svg" xmlns:xlink="http://www.w3.org/1999/xlink" x="0px" y="0px"
	 viewBox="0 0 512.025 512.025" style="enable-background:new 0 0 512.025 512.025;" xml:space="preserve">
<g>
	<g>
		<path d="M508.907,493.782l-67.136-67.115l-28.885,28.885c-2.091,2.091-4.821,3.115-7.552,3.115c-2.731,0-5.461-1.045-7.552-3.115
			c-4.16-4.16-4.16-10.923,0-15.083l28.885-28.885L399.104,384l-28.885,28.885c-2.091,2.091-4.821,3.115-7.552,3.115
			c-2.731,0-5.461-1.045-7.552-3.115c-4.16-4.16-4.16-10.923,0-15.083L384,368.918l-27.563-27.584l-28.885,28.885
			c-2.091,2.091-4.821,3.115-7.552,3.115c-2.731,0-5.461-1.045-7.552-3.115c-4.16-4.16-4.16-10.923,0-15.083l28.885-28.885
			l-27.563-27.584l-28.885,28.885c-2.091,2.091-4.821,3.115-7.552,3.115s-5.461-1.045-7.552-3.115c-4.16-4.16-4.16-10.923,0-15.083
			l28.885-28.885L271.104,256l-28.885,28.885c-2.091,2.091-4.821,3.115-7.552,3.115c-2.731,0-5.461-1.045-7.552-3.115
			c-4.16-4.16-4.16-10.923,0-15.083L256,240.918l-27.563-27.584l-28.885,28.885c-2.091,2.091-4.821,3.115-7.552,3.115
			c-2.731,0-5.461-1.045-7.552-3.115c-4.16-4.16-4.16-10.923,0-15.083l28.885-28.885l-27.563-27.584l-28.885,28.885
			c-2.091,2.091-4.821,3.115-7.552,3.115s-5.461-1.045-7.552-3.115c-4.16-4.16-4.16-10.923,0-15.083l28.885-28.885L143.104,128
			l-28.885,28.885c-2.091,2.091-4.821,3.115-7.552,3.115s-5.461-1.045-7.552-3.115c-4.16-4.16-4.16-10.923,0-15.083L128,112.918
			l-27.563-27.584l-28.885,28.885c-2.091,2.091-4.821,3.115-7.552,3.115c-2.731,0-5.461-1.045-7.552-3.115
			c-4.16-4.16-4.16-10.923,0-15.083l28.885-28.885L18.219,3.136c-3.051-3.051-7.595-3.989-11.627-2.304
			C2.603,2.475,0,6.379,0,10.688v490.667c0,5.888,4.779,10.667,10.667,10.667h490.667c4.309,0,8.213-2.603,9.856-6.592
			C512.875,501.419,511.957,496.854,508.907,493.782z M255.211,398.742c-1.664,4.011-5.525,6.592-9.856,6.592h-128
			c-5.888,0-10.667-4.779-10.667-10.667v-128c0-4.331,2.581-8.192,6.571-9.856c1.323-0.533,2.688-0.811,4.096-0.811
			c2.837,0,5.525,1.109,7.552,3.115l128,128C255.957,390.187,256.875,394.752,255.211,398.742z"/>
	</g>
</g>
<g>
</g>
<g>
</g>
<g>
</g>
<g>
</g>
<g>
</g>
<g>
</g>
<g>
</g>
<g>
</g>
<g>
</g>
<g>
</g>
<g>
</g>
<g>
</g>
<g>
</g>
<g>
</g>
<g>
</g>
</svg>
